<mxfile host="app.diagrams.net" modified="2023-06-26T07:40:38.172Z" agent="Mozilla/5.0 (X11; Ubuntu; Linux x86_64; rv:109.0) Gecko/20100101 Firefox/114.0" etag="GLLH9cwtI7GqjJVmPVOn" version="21.5.0" type="github">
  <diagram name="Page-1" id="r-T6OLwQH29qr_7euo9l">
    <mxGraphModel dx="1360" dy="795" grid="1" gridSize="10" guides="1" tooltips="1" connect="1" arrows="1" fold="1" page="1" pageScale="1" pageWidth="850" pageHeight="1100" math="0" shadow="0">
      <root>
        <mxCell id="0" />
        <mxCell id="1" parent="0" />
        <mxCell id="oR3EOA6jBZrTbAOyoPTf-1" value="" style="whiteSpace=wrap;html=1;aspect=fixed;strokeWidth=2;" parent="1" vertex="1">
          <mxGeometry x="114" y="271" width="240" height="240" as="geometry" />
        </mxCell>
        <mxCell id="oR3EOA6jBZrTbAOyoPTf-2" value="MongoDB&lt;br&gt;Atlas" style="shape=cylinder3;whiteSpace=wrap;html=1;boundedLbl=1;backgroundOutline=1;size=15;" parent="1" vertex="1">
          <mxGeometry x="600" y="220" width="90" height="100" as="geometry" />
        </mxCell>
        <mxCell id="oR3EOA6jBZrTbAOyoPTf-4" value="SMS" style="shape=message;html=1;html=1;outlineConnect=0;labelPosition=center;verticalLabelPosition=bottom;align=center;verticalAlign=top;" parent="1" vertex="1">
          <mxGeometry x="620" y="146" width="60" height="40" as="geometry" />
        </mxCell>
        <mxCell id="oR3EOA6jBZrTbAOyoPTf-30" style="edgeStyle=orthogonalEdgeStyle;rounded=0;orthogonalLoop=1;jettySize=auto;html=1;exitX=1;exitY=0.5;exitDx=0;exitDy=0;exitPerimeter=0;entryX=0;entryY=0.5;entryDx=0;entryDy=0;" parent="1" source="oR3EOA6jBZrTbAOyoPTf-5" target="oR3EOA6jBZrTbAOyoPTf-4" edge="1">
          <mxGeometry relative="1" as="geometry" />
        </mxCell>
        <mxCell id="oR3EOA6jBZrTbAOyoPTf-5" value="&lt;div align=&quot;right&quot;&gt;&lt;font color=&quot;#000000&quot;&gt;SNS&lt;/font&gt;&lt;/div&gt;" style="sketch=0;points=[[0,0,0],[0.25,0,0],[0.5,0,0],[0.75,0,0],[1,0,0],[0,1,0],[0.25,1,0],[0.5,1,0],[0.75,1,0],[1,1,0],[0,0.25,0],[0,0.5,0],[0,0.75,0],[1,0.25,0],[1,0.5,0],[1,0.75,0]];outlineConnect=0;fontColor=#232F3E;gradientColor=#FF4F8B;gradientDirection=north;fillColor=#BC1356;strokeColor=#ffffff;dashed=0;verticalLabelPosition=bottom;verticalAlign=top;align=right;html=1;fontSize=12;fontStyle=0;aspect=fixed;shape=mxgraph.aws4.resourceIcon;resIcon=mxgraph.aws4.sns;" parent="1" vertex="1">
          <mxGeometry x="431" y="131" width="70" height="70" as="geometry" />
        </mxCell>
        <mxCell id="oR3EOA6jBZrTbAOyoPTf-6" value="Amazon EKS" style="sketch=0;outlineConnect=0;fontColor=#232F3E;gradientColor=none;strokeColor=#ffffff;fillColor=#232F3E;dashed=0;verticalLabelPosition=middle;verticalAlign=bottom;align=center;html=1;whiteSpace=wrap;fontSize=10;fontStyle=1;spacing=3;shape=mxgraph.aws4.productIcon;prIcon=mxgraph.aws4.eks;" parent="1" vertex="1">
          <mxGeometry x="304" y="271" width="50" height="80" as="geometry" />
        </mxCell>
        <mxCell id="oR3EOA6jBZrTbAOyoPTf-8" value="OpenSearch" style="outlineConnect=0;dashed=0;verticalLabelPosition=bottom;verticalAlign=top;align=center;html=1;shape=mxgraph.aws3.elasticsearch_service;fillColor=#F58534;gradientColor=none;" parent="1" vertex="1">
          <mxGeometry x="485" y="521" width="50.5" height="60" as="geometry" />
        </mxCell>
        <mxCell id="3_2HW8Un-s5Gs4iZI3K2-3" style="edgeStyle=orthogonalEdgeStyle;rounded=0;orthogonalLoop=1;jettySize=auto;html=1;entryX=0.5;entryY=0;entryDx=0;entryDy=0;entryPerimeter=0;startArrow=classic;startFill=1;" edge="1" parent="1" source="oR3EOA6jBZrTbAOyoPTf-19" target="3_2HW8Un-s5Gs4iZI3K2-1">
          <mxGeometry relative="1" as="geometry" />
        </mxCell>
        <mxCell id="oR3EOA6jBZrTbAOyoPTf-19" value="&lt;div align=&quot;center&quot;&gt;Load Balancer&lt;/div&gt;&lt;div align=&quot;right&quot;&gt;&lt;br&gt;&lt;/div&gt;" style="outlineConnect=0;dashed=0;verticalLabelPosition=middle;verticalAlign=middle;align=left;html=1;shape=mxgraph.aws3.application_load_balancer;fillColor=#F58536;gradientColor=none;labelPosition=right;" parent="1" vertex="1">
          <mxGeometry x="140" y="101" width="69" height="72" as="geometry" />
        </mxCell>
        <mxCell id="oR3EOA6jBZrTbAOyoPTf-33" style="edgeStyle=orthogonalEdgeStyle;rounded=0;orthogonalLoop=1;jettySize=auto;html=1;exitX=0.5;exitY=1;exitDx=0;exitDy=0;exitPerimeter=0;" parent="1" source="oR3EOA6jBZrTbAOyoPTf-32" edge="1">
          <mxGeometry relative="1" as="geometry">
            <mxPoint x="170" y="100" as="targetPoint" />
          </mxGeometry>
        </mxCell>
        <mxCell id="oR3EOA6jBZrTbAOyoPTf-32" value="&lt;div align=&quot;right&quot;&gt;Users&lt;/div&gt;" style="outlineConnect=0;dashed=0;verticalLabelPosition=bottom;verticalAlign=top;align=right;html=1;shape=mxgraph.aws3.users;fillColor=#D2D3D3;gradientColor=none;" parent="1" vertex="1">
          <mxGeometry x="137" y="10" width="66" height="63" as="geometry" />
        </mxCell>
        <mxCell id="oR3EOA6jBZrTbAOyoPTf-34" value="" style="whiteSpace=wrap;html=1;aspect=fixed;" parent="1" vertex="1">
          <mxGeometry x="114.5" y="550" width="120" height="120" as="geometry" />
        </mxCell>
        <mxCell id="oR3EOA6jBZrTbAOyoPTf-35" value="&lt;font color=&quot;#000000&quot;&gt;EC2&lt;/font&gt;" style="sketch=0;points=[[0,0,0],[0.25,0,0],[0.5,0,0],[0.75,0,0],[1,0,0],[0,1,0],[0.25,1,0],[0.5,1,0],[0.75,1,0],[1,1,0],[0,0.25,0],[0,0.5,0],[0,0.75,0],[1,0.25,0],[1,0.5,0],[1,0.75,0]];outlineConnect=0;fontColor=#232F3E;gradientColor=#F78E04;gradientDirection=north;fillColor=#D05C17;strokeColor=#ffffff;dashed=0;verticalLabelPosition=bottom;verticalAlign=top;align=center;html=1;fontSize=12;fontStyle=0;aspect=fixed;shape=mxgraph.aws4.resourceIcon;resIcon=mxgraph.aws4.ec2;" parent="1" vertex="1">
          <mxGeometry x="200.5" y="550" width="34" height="34" as="geometry" />
        </mxCell>
        <mxCell id="3_2HW8Un-s5Gs4iZI3K2-18" style="edgeStyle=orthogonalEdgeStyle;rounded=0;orthogonalLoop=1;jettySize=auto;html=1;exitX=0;exitY=0.5;exitDx=0;exitDy=0;entryX=0;entryY=0.5;entryDx=0;entryDy=0;" edge="1" parent="1" source="oR3EOA6jBZrTbAOyoPTf-36" target="3_2HW8Un-s5Gs4iZI3K2-5">
          <mxGeometry relative="1" as="geometry" />
        </mxCell>
        <mxCell id="oR3EOA6jBZrTbAOyoPTf-36" value="VTS" style="whiteSpace=wrap;html=1;aspect=fixed;" parent="1" vertex="1">
          <mxGeometry x="124" y="560" width="50" height="50" as="geometry" />
        </mxCell>
        <mxCell id="oR3EOA6jBZrTbAOyoPTf-37" value="Thales&lt;br&gt;Sim." style="whiteSpace=wrap;html=1;aspect=fixed;" parent="1" vertex="1">
          <mxGeometry x="124" y="620" width="50" height="48" as="geometry" />
        </mxCell>
        <mxCell id="oR3EOA6jBZrTbAOyoPTf-41" value="&lt;font color=&quot;#000000&quot;&gt;&lt;span style=&quot;background-color: rgb(255, 255, 255);&quot;&gt;MSK&lt;/span&gt;&lt;/font&gt;" style="sketch=0;points=[[0,0,0],[0.25,0,0],[0.5,0,0],[0.75,0,0],[1,0,0],[0,1,0],[0.25,1,0],[0.5,1,0],[0.75,1,0],[1,1,0],[0,0.25,0],[0,0.5,0],[0,0.75,0],[1,0.25,0],[1,0.5,0],[1,0.75,0]];outlineConnect=0;fontColor=#232F3E;gradientColor=#945DF2;gradientDirection=north;fillColor=#5A30B5;strokeColor=#ffffff;dashed=0;verticalLabelPosition=bottom;verticalAlign=top;align=center;html=1;fontSize=12;fontStyle=0;aspect=fixed;shape=mxgraph.aws4.resourceIcon;resIcon=mxgraph.aws4.managed_streaming_for_kafka;" parent="1" vertex="1">
          <mxGeometry x="590" y="349" width="78" height="78" as="geometry" />
        </mxCell>
        <mxCell id="3_2HW8Un-s5Gs4iZI3K2-14" style="edgeStyle=orthogonalEdgeStyle;rounded=0;orthogonalLoop=1;jettySize=auto;html=1;entryX=0.5;entryY=0;entryDx=0;entryDy=0;entryPerimeter=0;" edge="1" parent="1" source="3_2HW8Un-s5Gs4iZI3K2-1" target="3_2HW8Un-s5Gs4iZI3K2-7">
          <mxGeometry relative="1" as="geometry" />
        </mxCell>
        <mxCell id="3_2HW8Un-s5Gs4iZI3K2-15" style="edgeStyle=orthogonalEdgeStyle;rounded=0;orthogonalLoop=1;jettySize=auto;html=1;exitX=0.995;exitY=0.63;exitDx=0;exitDy=0;exitPerimeter=0;" edge="1" parent="1" source="3_2HW8Un-s5Gs4iZI3K2-1" target="3_2HW8Un-s5Gs4iZI3K2-8">
          <mxGeometry relative="1" as="geometry" />
        </mxCell>
        <mxCell id="3_2HW8Un-s5Gs4iZI3K2-16" style="edgeStyle=orthogonalEdgeStyle;rounded=0;orthogonalLoop=1;jettySize=auto;html=1;exitX=0.005;exitY=0.63;exitDx=0;exitDy=0;exitPerimeter=0;entryX=0.5;entryY=0;entryDx=0;entryDy=0;entryPerimeter=0;" edge="1" parent="1" source="3_2HW8Un-s5Gs4iZI3K2-1" target="3_2HW8Un-s5Gs4iZI3K2-6">
          <mxGeometry relative="1" as="geometry" />
        </mxCell>
        <mxCell id="3_2HW8Un-s5Gs4iZI3K2-1" value="Ingress Controller" style="sketch=0;html=1;dashed=0;whitespace=wrap;fillColor=#2875E2;strokeColor=#ffffff;points=[[0.005,0.63,0],[0.1,0.2,0],[0.9,0.2,0],[0.5,0,0],[0.995,0.63,0],[0.72,0.99,0],[0.5,1,0],[0.28,0.99,0]];verticalLabelPosition=bottom;align=center;verticalAlign=top;shape=mxgraph.kubernetes.icon;prIcon=ing" vertex="1" parent="1">
          <mxGeometry x="185" y="272" width="50" height="48" as="geometry" />
        </mxCell>
        <mxCell id="3_2HW8Un-s5Gs4iZI3K2-20" style="edgeStyle=orthogonalEdgeStyle;rounded=0;orthogonalLoop=1;jettySize=auto;html=1;exitX=0;exitY=0.25;exitDx=0;exitDy=0;entryX=0;entryY=0.5;entryDx=0;entryDy=0;startArrow=classic;startFill=1;" edge="1" parent="1" source="3_2HW8Un-s5Gs4iZI3K2-5" target="oR3EOA6jBZrTbAOyoPTf-37">
          <mxGeometry relative="1" as="geometry">
            <Array as="points">
              <mxPoint x="60" y="403" />
              <mxPoint x="60" y="644" />
            </Array>
          </mxGeometry>
        </mxCell>
        <mxCell id="3_2HW8Un-s5Gs4iZI3K2-24" style="edgeStyle=orthogonalEdgeStyle;rounded=0;orthogonalLoop=1;jettySize=auto;html=1;exitX=1;exitY=0.75;exitDx=0;exitDy=0;startArrow=classic;startFill=1;" edge="1" parent="1" source="3_2HW8Un-s5Gs4iZI3K2-5" target="oR3EOA6jBZrTbAOyoPTf-8">
          <mxGeometry relative="1" as="geometry" />
        </mxCell>
        <mxCell id="3_2HW8Un-s5Gs4iZI3K2-28" value="&lt;div&gt;Logs (App &amp;amp; Trans)&lt;/div&gt;" style="edgeLabel;html=1;align=center;verticalAlign=middle;resizable=0;points=[];" vertex="1" connectable="0" parent="3_2HW8Un-s5Gs4iZI3K2-24">
          <mxGeometry x="-0.4459" y="-3" relative="1" as="geometry">
            <mxPoint x="8" y="-10" as="offset" />
          </mxGeometry>
        </mxCell>
        <mxCell id="3_2HW8Un-s5Gs4iZI3K2-25" style="edgeStyle=orthogonalEdgeStyle;rounded=0;orthogonalLoop=1;jettySize=auto;html=1;exitX=1;exitY=0.5;exitDx=0;exitDy=0;" edge="1" parent="1" source="3_2HW8Un-s5Gs4iZI3K2-5" target="oR3EOA6jBZrTbAOyoPTf-41">
          <mxGeometry relative="1" as="geometry" />
        </mxCell>
        <mxCell id="3_2HW8Un-s5Gs4iZI3K2-26" style="edgeStyle=orthogonalEdgeStyle;rounded=0;orthogonalLoop=1;jettySize=auto;html=1;exitX=1;exitY=0.25;exitDx=0;exitDy=0;entryX=0;entryY=0.5;entryDx=0;entryDy=0;entryPerimeter=0;startArrow=classic;startFill=1;" edge="1" parent="1" source="3_2HW8Un-s5Gs4iZI3K2-5" target="oR3EOA6jBZrTbAOyoPTf-2">
          <mxGeometry relative="1" as="geometry">
            <Array as="points">
              <mxPoint x="420" y="403" />
              <mxPoint x="420" y="270" />
            </Array>
          </mxGeometry>
        </mxCell>
        <mxCell id="3_2HW8Un-s5Gs4iZI3K2-27" style="edgeStyle=orthogonalEdgeStyle;rounded=0;orthogonalLoop=1;jettySize=auto;html=1;exitX=0.75;exitY=0;exitDx=0;exitDy=0;entryX=0;entryY=0.5;entryDx=0;entryDy=0;entryPerimeter=0;" edge="1" parent="1" source="3_2HW8Un-s5Gs4iZI3K2-5" target="oR3EOA6jBZrTbAOyoPTf-5">
          <mxGeometry relative="1" as="geometry" />
        </mxCell>
        <mxCell id="3_2HW8Un-s5Gs4iZI3K2-5" value="Application" style="rounded=0;whiteSpace=wrap;html=1;" vertex="1" parent="1">
          <mxGeometry x="124" y="370" width="216" height="130" as="geometry" />
        </mxCell>
        <mxCell id="3_2HW8Un-s5Gs4iZI3K2-6" value="" style="sketch=0;html=1;dashed=0;whitespace=wrap;fillColor=#2875E2;strokeColor=#ffffff;points=[[0.005,0.63,0],[0.1,0.2,0],[0.9,0.2,0],[0.5,0,0],[0.995,0.63,0],[0.72,0.99,0],[0.5,1,0],[0.28,0.99,0]];verticalLabelPosition=bottom;align=center;verticalAlign=top;shape=mxgraph.kubernetes.icon;prIcon=pod" vertex="1" parent="1">
          <mxGeometry x="128" y="370" width="50" height="48" as="geometry" />
        </mxCell>
        <mxCell id="3_2HW8Un-s5Gs4iZI3K2-7" value="" style="sketch=0;html=1;dashed=0;whitespace=wrap;fillColor=#2875E2;strokeColor=#ffffff;points=[[0.005,0.63,0],[0.1,0.2,0],[0.9,0.2,0],[0.5,0,0],[0.995,0.63,0],[0.72,0.99,0],[0.5,1,0],[0.28,0.99,0]];verticalLabelPosition=bottom;align=center;verticalAlign=top;shape=mxgraph.kubernetes.icon;prIcon=pod" vertex="1" parent="1">
          <mxGeometry x="182.5" y="370" width="50" height="48" as="geometry" />
        </mxCell>
        <mxCell id="3_2HW8Un-s5Gs4iZI3K2-8" value="" style="sketch=0;html=1;dashed=0;whitespace=wrap;fillColor=#2875E2;strokeColor=#ffffff;points=[[0.005,0.63,0],[0.1,0.2,0],[0.9,0.2,0],[0.5,0,0],[0.995,0.63,0],[0.72,0.99,0],[0.5,1,0],[0.28,0.99,0]];verticalLabelPosition=bottom;align=center;verticalAlign=top;shape=mxgraph.kubernetes.icon;prIcon=pod" vertex="1" parent="1">
          <mxGeometry x="235.5" y="370" width="50" height="48" as="geometry" />
        </mxCell>
        <mxCell id="3_2HW8Un-s5Gs4iZI3K2-9" value="" style="sketch=0;html=1;dashed=0;whitespace=wrap;fillColor=#2875E2;strokeColor=#ffffff;points=[[0.005,0.63,0],[0.1,0.2,0],[0.9,0.2,0],[0.5,0,0],[0.995,0.63,0],[0.72,0.99,0],[0.5,1,0],[0.28,0.99,0]];verticalLabelPosition=bottom;align=center;verticalAlign=top;shape=mxgraph.kubernetes.icon;prIcon=pod" vertex="1" parent="1">
          <mxGeometry x="288.5" y="370" width="50" height="48" as="geometry" />
        </mxCell>
        <mxCell id="3_2HW8Un-s5Gs4iZI3K2-10" value="" style="sketch=0;html=1;dashed=0;whitespace=wrap;fillColor=#2875E2;strokeColor=#ffffff;points=[[0.005,0.63,0],[0.1,0.2,0],[0.9,0.2,0],[0.5,0,0],[0.995,0.63,0],[0.72,0.99,0],[0.5,1,0],[0.28,0.99,0]];verticalLabelPosition=bottom;align=center;verticalAlign=top;shape=mxgraph.kubernetes.icon;prIcon=pod" vertex="1" parent="1">
          <mxGeometry x="129.5" y="450" width="50" height="48" as="geometry" />
        </mxCell>
        <mxCell id="3_2HW8Un-s5Gs4iZI3K2-11" value="" style="sketch=0;html=1;dashed=0;whitespace=wrap;fillColor=#2875E2;strokeColor=#ffffff;points=[[0.005,0.63,0],[0.1,0.2,0],[0.9,0.2,0],[0.5,0,0],[0.995,0.63,0],[0.72,0.99,0],[0.5,1,0],[0.28,0.99,0]];verticalLabelPosition=bottom;align=center;verticalAlign=top;shape=mxgraph.kubernetes.icon;prIcon=pod" vertex="1" parent="1">
          <mxGeometry x="184" y="450" width="50" height="48" as="geometry" />
        </mxCell>
        <mxCell id="3_2HW8Un-s5Gs4iZI3K2-12" value="" style="sketch=0;html=1;dashed=0;whitespace=wrap;fillColor=#2875E2;strokeColor=#ffffff;points=[[0.005,0.63,0],[0.1,0.2,0],[0.9,0.2,0],[0.5,0,0],[0.995,0.63,0],[0.72,0.99,0],[0.5,1,0],[0.28,0.99,0]];verticalLabelPosition=bottom;align=center;verticalAlign=top;shape=mxgraph.kubernetes.icon;prIcon=pod" vertex="1" parent="1">
          <mxGeometry x="237" y="450" width="50" height="48" as="geometry" />
        </mxCell>
        <mxCell id="3_2HW8Un-s5Gs4iZI3K2-13" value="" style="sketch=0;html=1;dashed=0;whitespace=wrap;fillColor=#2875E2;strokeColor=#ffffff;points=[[0.005,0.63,0],[0.1,0.2,0],[0.9,0.2,0],[0.5,0,0],[0.995,0.63,0],[0.72,0.99,0],[0.5,1,0],[0.28,0.99,0]];verticalLabelPosition=bottom;align=center;verticalAlign=top;shape=mxgraph.kubernetes.icon;prIcon=pod" vertex="1" parent="1">
          <mxGeometry x="290" y="450" width="50" height="48" as="geometry" />
        </mxCell>
        <mxCell id="3_2HW8Un-s5Gs4iZI3K2-29" value="" style="rounded=0;whiteSpace=wrap;html=1;dashed=1;fillColor=none;strokeColor=#deddda;" vertex="1" parent="1">
          <mxGeometry width="710" height="680" as="geometry" />
        </mxCell>
      </root>
    </mxGraphModel>
  </diagram>
</mxfile>
